<svg xmlns="http://www.w3.org/2000/svg" xmlns:xlink="http://www.w3.org/1999/xlink"><symbol id="external-link" viewBox="0 0 28 28"><path d="M22 14.5v5c0 2.484-2.016 4.5-4.5 4.5h-13A4.502 4.502 0 0 1 0 19.5v-13C0 4.016 2.016 2 4.5 2h11c.281 0 .5.219.5.5v1c0 .281-.219.5-.5.5h-11A2.507 2.507 0 0 0 2 6.5v13C2 20.875 3.125 22 4.5 22h13c1.375 0 2.5-1.125 2.5-2.5v-5c0-.281.219-.5.5-.5h1c.281 0 .5.219.5.5zM28 1v8c0 .547-.453 1-1 1a.99.99 0 0 1-.703-.297l-2.75-2.75L13.36 17.14c-.094.094-.234.156-.359.156s-.266-.063-.359-.156l-1.781-1.781c-.094-.094-.156-.234-.156-.359s.063-.266.156-.359L21.048 4.454l-2.75-2.75a.996.996 0 0 1-.297-.703c0-.547.453-1 1-1h8c.547 0 1 .453 1 1z"/></symbol><symbol id="html5" viewBox="0 0 32 32"><path d="M2 0h28l-2.547 28.751L15.969 32 4.55 28.749 1.999 0zm9.375 13l-.309-3.624 13.412.004.307-3.496L7.217 5.88l.931 10.68h12.168l-.435 4.568-3.88 1.072-3.94-1.08-.251-2.813H8.331l.44 5.561L16 25.801l7.172-1.924.992-10.876H11.375z"/></symbol><symbol id="javascript" viewBox="0 0 32 32"><path d="M0 0h32v32H0V0zm29.379 24.368c-.233-1.46-1.184-2.687-4.004-3.831-.981-.46-2.072-.78-2.396-1.52-.121-.44-.14-.68-.061-.94.2-.861 1.22-1.12 2.02-.88.52.16 1 .56 1.301 1.2 1.379-.901 1.379-.901 2.34-1.5-.36-.56-.539-.801-.781-1.04-.84-.94-1.959-1.42-3.779-1.379l-.94.119c-.901.22-1.76.7-2.28 1.34-1.52 1.721-1.081 4.721.759 5.961 1.82 1.36 4.481 1.659 4.821 2.94.32 1.56-1.16 2.06-2.621 1.88-1.081-.24-1.68-.781-2.34-1.781l-2.44 1.401c.28.64.6.919 1.08 1.479 2.32 2.341 8.12 2.221 9.161-1.339.039-.12.32-.94.099-2.2l.061.089zm-11.978-9.66h-2.997c0 2.584-.012 5.152-.012 7.74 0 1.643.084 3.151-.184 3.615-.44.919-1.573.801-2.088.64-.528-.261-.796-.621-1.107-1.14-.084-.14-.147-.261-.169-.261l-2.433 1.5c.407.84 1 1.563 1.765 2.023 1.14.68 2.672.9 4.276.54 1.044-.301 1.944-.921 2.415-1.881.68-1.24.536-2.76.529-4.461.016-2.739 0-5.479 0-8.239l.005-.075z"/></symbol><symbol id="nodejs" viewBox="0 0 32 32"><path d="M15.247.204L2.754 7.444a1.51 1.51 0 0 0-.751 1.311V23.24c0 .539.287 1.04.752 1.309l12.493 7.247c.467.271 1.04.271 1.507 0l12.488-7.244c.467-.273.752-.771.753-1.309V8.755a1.52 1.52 0 0 0-.755-1.312L16.756.203a1.498 1.498 0 0 0-1.507 0z"/></symbol><symbol id="jquery" viewBox="0 0 32 32"><path d="M2.045 7.832c-2.831 4.067-2.48 9.356-.316 13.675.049.105.104.205.157.305.031.069.065.133.103.199.017.037.041.076.063.111.035.069.072.136.108.203l.209.353c.039.065.076.129.12.195.073.125.16.249.236.375.035.052.067.104.105.156.148.232.284.425.428.612l-.015-.02c.104.143.208.281.32.42.036.051.076.101.113.152l.295.359c.036.041.072.089.111.132.131.157.269.311.408.465 0 .003.004.005.007.009.172.217.358.409.56.582l.006.005c.107.109.213.219.327.325l.135.129c.148.139.296.277.452.411.003 0 .004.003.007.004l.076.067c.136.119.273.237.413.347l.167.14c.113.091.231.177.347.267l.181.139c.124.093.256.185.383.276.047.033.093.067.141.097l.039.031.375.247.16.107c.196.125.391.244.584.361.056.028.112.059.164.091.144.083.293.167.439.244.08.045.163.084.245.125.1.056.204.111.311.167a.387.387 0 0 1 .077.032l-.002-.001c.044.02.085.041.128.063.16.08.327.156.5.232.032.013.067.027.101.045.192.084.384.164.583.243.045.013.093.036.14.053.18.068.365.137.548.203l.067.024c.204.069.405.136.612.2.048.013.097.031.148.044.212.064.417.14.631.181 13.68 2.493 17.656-8.225 17.656-8.225-3.34 4.349-9.267 5.496-14.88 4.22-.208-.048-.416-.115-.625-.176a14.64 14.64 0 0 1-.882-.28l.126.039-.083-.032c-.181-.061-.356-.129-.533-.197a1.738 1.738 0 0 0-.132-.05l-.015-.004c-.196-.079-.387-.16-.576-.244-.041-.013-.076-.032-.117-.048a16.54 16.54 0 0 1-.665-.308l.184.081c-.049-.021-.093-.044-.141-.069a10.022 10.022 0 0 1-.373-.189 4.225 4.225 0 0 1-.276-.142l.027.014c-.151-.08-.301-.167-.452-.249-.045-.032-.097-.059-.149-.088a17.928 17.928 0 0 1-.668-.409l.084.05a2.925 2.925 0 0 1-.165-.111l.008.006a7.671 7.671 0 0 1-.44-.291l.024.017c-.047-.031-.089-.064-.137-.097-.17-.118-.298-.211-.424-.306l.032.023c-.056-.045-.116-.088-.176-.133-.117-.092-.236-.18-.353-.277l-.157-.125c-.174-.14-.319-.263-.461-.388l.016.013A.356.356 0 0 0 8.771 23l-.001-.001-.463-.421-.133-.125c-.109-.111-.221-.217-.333-.327l-.129-.133a12.33 12.33 0 0 1-.404-.421l-.008-.009-.02-.021a23.788 23.788 0 0 1-.417-.472c-.036-.041-.069-.085-.107-.129l-.301-.369a20.463 20.463 0 0 1-.4-.522l-.054-.075C2.888 15.724 1.761 9.858 4.253 5.046z"/><path d="M10.828 4.407c-2.052 2.945-1.936 6.884-.339 9.999.296.584.596 1.078.928 1.547l-.025-.038c.307.44.645.96 1.056 1.315a8.9 8.9 0 0 0 .459.479l.12.12c.152.147.308.291.467.433l.02.017c.16.141.34.29.524.435l.028.021c.045.031.084.067.128.097.187.144.375.283.569.42l.02.012c.083.06.171.115.264.173.037.024.08.056.12.08.141.091.28.176.423.263.023.009.043.021.064.031.12.073.251.144.376.209.044.027.087.047.132.072.089.044.177.091.263.136l.043.019c.18.088.364.171.544.253a14.006 14.006 0 0 0 .57.234c.067.023.129.049.192.069.136.051.279.097.413.144l.187.06c.195.06.392.139.597.172 10.56 1.751 13.005-6.383 13.005-6.383-2.201 3.168-6.461 4.677-11.001 3.499a9.85 9.85 0 0 1-.673-.195l.076.022c-.064-.017-.12-.037-.181-.056-.139-.048-.281-.095-.416-.145l-.192-.072c-.149-.06-.301-.116-.447-.18-.045-.02-.087-.033-.121-.053-.187-.084-.375-.167-.556-.256l-.275-.143-.159-.08c-.123-.064-.236-.131-.353-.2a.952.952 0 0 1-.086-.047l.003.002c-.141-.088-.288-.173-.423-.264-.045-.025-.087-.056-.129-.083l-.277-.181c-.192-.133-.38-.277-.569-.416-.043-.039-.084-.071-.125-.105-1.996-1.569-3.571-3.715-4.317-6.144-.787-2.525-.613-5.357.745-7.656z"/><path d="M18.213 1.845c-1.211 1.776-1.327 3.981-.493 5.94.885 2.08 2.696 3.713 4.805 4.487.087.033.171.061.26.093l.117.036c.123.039.247.084.373.112 5.835 1.125 7.413-2.996 7.839-3.601-1.389 1.995-3.719 2.473-6.576 1.779a6.317 6.317 0 0 1-.732-.228l.044.015a8.2 8.2 0 0 1-.873-.361l.05.022a8.696 8.696 0 0 1-1.462-.896l.021.016c-2.56-1.939-4.145-5.64-2.476-8.655z"/></symbol><symbol id="github" viewBox="0 0 32 32"><path d="M16 .396c-8.84 0-16 7.164-16 16 0 7.071 4.584 13.067 10.94 15.18.8.151 1.093-.344 1.093-.769 0-.38-.013-1.387-.02-2.72-4.451.965-5.389-2.147-5.389-2.147-.728-1.847-1.78-2.34-1.78-2.34-1.449-.992.112-.972.112-.972 1.607.112 2.451 1.648 2.451 1.648 1.427 2.447 3.745 1.74 4.66 1.331.144-1.035.556-1.74 1.013-2.14-3.553-.4-7.288-1.776-7.288-7.907 0-1.747.62-3.173 1.647-4.293-.18-.404-.72-2.031.14-4.235 0 0 1.34-.429 4.4 1.64 1.28-.356 2.64-.532 4-.54 1.36.008 2.72.184 4 .54 3.04-2.069 4.38-1.64 4.38-1.64.86 2.204.32 3.831.16 4.235 1.02 1.12 1.64 2.547 1.64 4.293 0 6.147-3.74 7.5-7.3 7.893.56.48 1.08 1.461 1.08 2.96 0 2.141-.02 3.861-.02 4.381 0 .42.28.92 1.1.76C27.42 29.455 32 23.455 32 16.395c0-8.836-7.164-16-16-16z"/></symbol><symbol id="spinner" viewBox="0 0 32 32"><path d="M12 4a4 4 0 1 1 8 0 4 4 0 0 1-8 0zm12.719 12a3.281 3.281 0 0 1 6.562 0 3.281 3.281 0 0 1-6.562 0zm-3.206 8.485a2.972 2.972 0 1 1 5.945.001 2.972 2.972 0 0 1-5.945-.001zM13.308 28a2.692 2.692 0 1 1 5.383 0 2.692 2.692 0 0 1-5.383 0zm-8.231-3.515a2.439 2.439 0 1 1 4.877.001 2.439 2.439 0 0 1-4.877-.001zM1.792 16a2.208 2.208 0 1 1 4.416 0 2.208 2.208 0 0 1-4.416 0zm3.723-8.485a2 2 0 1 1 4 0 2 2 0 1 1-4 0zm22.593 0a3.623 3.623 0 1 1-7.246 0 3.623 3.623 0 0 1 7.246 0z"/></symbol><symbol id="npm" viewBox="0 0 32 32"><path d="M0 9.779v10.667h8.888v1.776H16v-1.776h16V9.779H0zm8.888 8.885H7.112v-5.333h-1.78v5.333H1.78v-7.108h7.108v7.108zm5.333 0v1.781h-3.553v-8.889h7.112v7.109l-3.559-.001zm16.002 0H28.45v-5.333h-1.781v5.333h-1.78v-5.333h-1.773v5.333h-3.561v-7.108h10.669v7.108z"/><path fill="#cb3837" d="M14.22 13.333H16v3.556h-1.78v-3.556z"/></symbol><symbol id="git" viewBox="0 0 32 32"><path d="M31.395 14.573L17.423.602a2.065 2.065 0 0 0-2.917 0l-2.895 2.9 3.68 3.68a2.452 2.452 0 0 1 3.103 3.121l3.544 3.547a2.451 2.451 0 0 1 2.533 4.052 2.449 2.449 0 0 1-3.467 0 2.46 2.46 0 0 1-.539-2.661l-3.319-3.301v8.7c.235.115.456.271.651.464a2.463 2.463 0 0 1 0 3.467 2.46 2.46 0 0 1-3.479 0 2.445 2.445 0 0 1 0-3.464c.243-.24.516-.421.807-.541v-8.785a2.433 2.433 0 0 1-.8-.535 2.445 2.445 0 0 1-.528-2.679l-3.616-3.633L.6 14.509c-.8.807-.8 2.112 0 2.919l13.973 13.969a2.061 2.061 0 0 0 2.915 0L31.395 17.49a2.059 2.059 0 0 0 0-2.916z"/></symbol><symbol id="undraw-in-thought" viewBox="0 0 839.39 834.65"><path fill="none" stroke="#2f2e41" stroke-miterlimit="10" d="M569.347 224.369q15.11 7.976 29.54 16.323m-217.002-49.271c43.939 9.501 91.91 25.903 140.235 49.05a670.774 670.774 0 0 1 100.103 58.752"/><path fill="none" stroke="#6F86D6" stroke-miterlimit="10" d="M235.63 832.57h450.53"/><path fill="none" stroke="#2f2e41" stroke-miterlimit="10" d="M340.77 184.39c13.204 1.623 26.95 3.969 41.115 7.031m-170.33 130.734c-24.394-35.7-32.774-69.428-20.24-95.594 13.862-28.94 50.969-43.745 101.268-44.836m432.67 220.165c20.333 32.732 26.641 63.419 15.044 87.63-10.206 21.306-33.01 34.95-64.4 41.102m-53.674-231.399a498.103 498.103 0 0 1 57.619 47.756M198.048 139.888c40.492-8.699 92.891-7.152 151.494 4.4m437.844 257.599c18.128 26.48 29.277 52.105 32.19 75.44M598.887 240.692q27.274 15.77 51.9 32.62"/><path fill="none" stroke="#6F86D6" stroke-miterlimit="10" d="M624.944 630.714a25.07 25.07 0 0 0-21.61 15.11c-5.404 13.062 1.554 28.405 11.998 37.93s23.862 14.97 36.052 22.125c16.374 9.613 31.087 22.956 39.28 40.084s9.063 38.344-.567 54.707c-8.938 15.188-25.19 24.278-40.692 32.66"/><ellipse cx="638.71" cy="631.85" fill="#57b894" rx="19.09" ry="9.27"/><ellipse cx="653.98" cy="692.94" fill="#57b894" rx="19.09" ry="9.27"/><ellipse cx="619.07" cy="702.76" fill="#57b894" rx="19.09" ry="9.27"/><ellipse cx="673.62" cy="754.03" fill="#57b894" rx="19.09" ry="9.27"/><ellipse cx="711.8" cy="754.03" fill="#57b894" rx="19.09" ry="9.27"/><path fill="#48C6EF" d="M522.642 270.647h10.754s9.859 76.178 2.689 83.348-26.887 11.65-29.575 0 0-54.669 0-54.669z"/><ellipse cx="452.29" cy="204.33" fill="#2f2e41" rx="65.42" ry="76.63"/><path fill="#ffc1c7" d="M437.501 218.667s3.585 29.575-7.17 35.849 12.548 42.122 12.548 42.122l27.782 7.17 18.82-25.991-3.584-26.886s-21.51-21.51-11.65-41.226z"/><path d="M437.501 218.667s3.585 29.575-7.17 35.849 12.548 42.122 12.548 42.122l27.782 7.17 18.82-25.991-3.584-26.886s-21.51-21.51-11.65-41.226z" opacity=".1"/><path fill="#ffc1c7" d="M397.172 539.709s-10.755 97.687 0 120.988 39.433 88.725 39.433 88.725l-8.962 18.82 24.198-5.377 9.858-18.82s-11.65-45.707-13.443-61.839S433.02 636.5 433.02 636.5l25.094-106.65zm85.14-16.329s.896 98.583 7.17 113.875l-3.585 133.535 19.717 2.633s28.678-112.027 24.197-138.913.897-123.678.897-123.678z"/><circle cx="452.29" cy="196.71" r="34.06" fill="#ffc1c7"/><path fill="#48C6EF" d="M568.348 535.926s-24.197 16.132-34.056 4.481-130.847 7.17-146.082 3.585 8.066-60.942 8.066-90.517c0-22.128 8.03-55.79 12.072-71.348 1.362-5.234 2.267-8.415 2.267-8.415s9.195-26.16 7.475-37.032a9.35 9.35 0 0 0-.673-2.393 4.913 4.913 0 0 0-.528-.905c-4.293-5.727-16.598-47.49-21.375-65.423a80.965 80.965 0 0 1-1.927-8.066c0-2.689 33.16-10.755 41.45-11.14 8.299-.385 10.53 11.14 10.53 11.14 2.689 1.792 15.236 33.16 15.236 33.16l11.65-29.575s-.895-6.274-1.792-6.274 13.255-8.46 13.255-8.46 14.528 10.253 22.594 8.46 26.886 14.34 26.886 14.34-33.16 83.347-19.716 101.272 54.668 163.11 54.668 163.11z"/><path fill="#2f2e41" d="M459.01 740.46s-15.235 15.236-15.235 17.028l-12.547-5.377s-5.377 19.717-6.274 22.405-16.131 26.887-31.367 37.641 0 24.198 13.443 21.51 47.5-33.16 47.5-33.16 23.301 0 31.367-17.925c0 0-21.51-43.914-26.886-42.122z"/><path fill="#2f2e41" d="M503.821 766.31s-23.023-16.729-24.507-1.195-1.483 49.59-1.483 49.59-7.17 22.405 15.236 19.717 24.197-8.963 24.197-8.963l-10.754-43.018v-18.82z"/><path d="M416.889 333.382c-4.293-5.727-16.598-47.49-21.375-65.423h4.346s10.916 42.722 17.557 66.328a4.913 4.913 0 0 0-.528-.905zm59.15 59.15s-12.547.896-58.254-8.066a91.374 91.374 0 0 1-9.437-2.339c1.362-5.234 2.267-8.415 2.267-8.415s9.195-26.16 7.475-37.032c2.141 7.528 3.737 12.61 4.176 12.834 1.792.896 59.15 10.755 67.216 14.34s-13.443 28.678-13.443 28.678zm16.131-117.295s24.72-3.05 26.251.958 7.805 42.743 10.494 47.71 3.585 35.755-7.17 36.749-25.094-9.933-22.405-18.872-7.17-66.545-7.17-66.545z" opacity=".1"/><path fill="#ffc1c7" d="M479.623 357.58s37.641 4.481 43.915 0 32.263-4.481 26.886 8.066-51.98 13.443-51.98 13.443h-26.887z"/><path fill="#48C6EF" d="M399.86 261.685h-6.273s-12.547 2.689-10.755 42.122-10.754 65.424 34.953 74.386 58.254 8.066 58.254 8.066 21.509-25.094 13.443-28.679-65.424-13.443-67.216-14.34-22.406-81.555-22.406-81.555z"/><path fill="#ffc1c7" d="M517.733 279.374s-15.704-58.915-28.251-58.915-26.887 2.69-16.132 14.34 24.198 24.198 25.094 30.471 4.481 15.236 4.481 15.236z"/><path fill="#48C6EF" d="M495.755 275.237s24.72-3.05 26.251.958 7.805 42.743 10.494 47.71 3.585 35.755-7.17 36.749-25.094-9.933-22.405-18.872-7.17-66.545-7.17-66.545z"/><circle cx="443.33" cy="164.45" r="32.26" fill="#2f2e41"/><path fill="none" stroke="#2f2e41" stroke-miterlimit="10" d="M573.337 529.167c-50.068-8.252-106.709-26.19-163.846-53.558-65.057-31.161-120.184-69.485-159.465-108.216m120.311 125.072c-44.792-23.206-85.344-49.006-120.313-75.866"/><circle cx="53.7" cy="76.08" r="53.7" fill="#48C6EF"/><circle cx="66.3" cy="54.2" r="53.7" fill="none" stroke="#2f2e41" stroke-miterlimit="10"/><circle cx="800.31" cy="270.04" r="31.24" fill="#f2f2f2"/><circle cx="807.64" cy="257.31" r="31.24" fill="none" stroke="#2f2e41" stroke-miterlimit="10"/><circle cx="230.36" cy="595.73" r="44.91" fill="#f2f2f2"/><circle cx="240.9" cy="577.43" r="44.91" fill="none" stroke="#2f2e41" stroke-miterlimit="10"/></symbol><symbol id="bootstrap" viewBox="0 0 32 32"><path d="M26.667 0H5.334A5.347 5.347 0 0 0 .001 5.333v21.333c0 2.933 2.4 5.333 5.333 5.333h21.333c2.933 0 5.333-2.4 5.333-5.333V5.333C32 2.4 29.6 0 26.667 0zm-2.916 22.473a4.153 4.153 0 0 1-1.231 1.645c-.56.453-1.269.827-2.143 1.093-.872.271-1.909.407-3.111.407H8.69V6.951h9.069c1.677 0 3.021.377 4.027 1.147 1.013.773 1.517 1.925 1.517 3.48 0 .94-.229 1.747-.691 2.413-.459.663-1.12 1.181-1.973 1.541v.061c1.139.24 2.02.78 2.6 1.62s.877 1.901.877 3.183c0 .717-.139 1.4-.4 2.037l.033.036zm-3.702-4.6c-.547-.5-1.315-.744-2.307-.744h-5.763v5.824h5.779c.987 0 1.76-.256 2.307-.773.547-.513.827-1.245.827-2.187-.009-.92-.28-1.632-.827-2.12h-.023zm-.8-3.764c.528-.448.787-1.089.787-1.925 0-.939-.233-1.605-.707-1.987-.469-.38-1.147-.577-2.037-.577h-5.333v5.151h5.333c.777 0 1.44-.227 1.952-.661z"/></symbol><symbol id="sass" viewBox="0 0 32 32"><path d="M16 0c8.836 0 16 7.164 16 16s-7.164 16-16 16S0 24.836 0 16 7.164 0 16 0zm-3.18 21.331c.233.86.208 1.664-.032 2.389l-.087.24c-.032.081-.069.16-.104.235a4.492 4.492 0 0 1-.74 1.08c-.931 1.012-2.229 1.396-2.787 1.073-.6-.349-.301-1.78.779-2.92 1.161-1.224 2.827-2.012 2.827-2.012v-.004l.144-.081zM26.035 6.849c-.723-2.844-5.436-3.779-9.896-2.193-2.652.943-5.525 2.424-7.591 4.356-2.457 2.295-2.848 4.295-2.687 5.131.569 2.948 4.609 4.876 6.271 6.307v.008c-.489.24-4.075 2.039-4.915 3.9-.9 1.96.14 3.361.82 3.54 2.1.581 4.26-.48 5.42-2.199 1.12-1.681 1.021-3.841.539-4.901.661-.18 1.44-.26 2.44-.139 2.801.32 3.361 2.08 3.24 2.8-.12.719-.697 1.139-.899 1.259-.2.121-.26.16-.241.241.02.12.121.12.28.1.22-.04 1.461-.6 1.521-1.961.06-1.72-1.581-3.639-4.5-3.6-1.2.021-1.961.121-2.5.341a.479.479 0 0 0-.14-.14c-1.8-1.94-5.14-3.3-5-5.88.04-.94.38-3.419 6.4-6.419 4.94-2.461 8.881-1.78 9.561-.28.977 2.139-2.101 6.12-7.241 6.699-1.96.22-2.98-.539-3.241-.82-.279-.3-.319-.32-.419-.259-.16.08-.06.34 0 .5.16.4.78 1.1 1.861 1.46.939.3 3.24.479 6-.6 3.099-1.199 5.519-4.54 4.819-7.34l.097.089z"/></symbol><symbol id="chevron-down" viewBox="0 0 20 20"><path fill="#48C6EF" d="M4.516 7.548c.436-.446 1.043-.481 1.576 0L10 11.295l3.908-3.747c.533-.481 1.141-.446 1.574 0 .436.445.408 1.197 0 1.615-.406.418-4.695 4.502-4.695 4.502a1.095 1.095 0 0 1-1.576 0S4.924 9.581 4.516 9.163s-.436-1.17 0-1.615z"/></symbol><symbol id="css3" viewBox="0 0 32 32"><path d="M2 0h28l-2.547 28.751L15.969 32l-11.42-3.251L2 0zm22.787 5.884L7.214 5.88l.284 3.496 13.5.003-.34 3.621h-8.853l.32 3.431h8.243l-.488 4.697L16 22.2l-3.941-1.08-.251-2.813h-3.48l.387 5.14 7.287 2.271 7.164-2.04 1.623-17.792z"/></symbol><symbol id="undraw-web-devices" viewBox="0 0 1036 612"><defs><linearGradient id="a" x1="675.05" x2="675.05" y1="606.02" y2="240.27" gradientUnits="userSpaceOnUse"><stop offset="0" stop-color="gray" stop-opacity=".25"/><stop offset=".54" stop-color="gray" stop-opacity=".12"/><stop offset="1" stop-color="gray" stop-opacity=".1"/></linearGradient><linearGradient id="b" x1="473.94" x2="473.94" y1="635.65" y2="301.65" xlink:href="#a"/><linearGradient id="c" x1="363.44" x2="363.44" y1="662.65" y2="401.65" xlink:href="#a"/><linearGradient id="d" x1="849.68" x2="849.68" y1="703.66" y2="385.5" xlink:href="#a"/></defs><path fill="#48C6EF" d="M151.4.07c-8.06-.23-16.32 0-23.88 2.32-20.57 6.32-30.32 27-27.15 44.87s16.21 33.44 29.74 47.67 28.19 28.3 35.61 45.31c3.7 8.49 5.43 18 1.67 26.48-5.8 13.07-23.29 20.37-40.08 21.89s-33.65-1.44-50.5-2.43c-7.07-.41-14.34-.46-21 1.45-7.31 2.08-13.4 6.33-19 10.76-21.85 17.38-39.34 41.09-36.51 66 3.2 28.23 31.74 50.54 63 62.51 10.35 4 21.3 7.18 30.41 12.84 24 14.93 29.39 42.93 27 67.64s-10.53 49.45-6 73.94c5.33 28.49 28.92 54.23 60.74 66.25 28.35 10.71 63.83 10 89-5.11 12.27-7.38 21.55-17.63 29.62-28.23a227.74 227.74 0 0 0 29.45-51c3.51-8.49 6.81-17.62 15-23.52 5-3.63 11.48-5.66 17.89-7.24 19.32-4.76 39.67-6.06 59.17-10.3S454.7 410 465.3 395.9c15-20 8-45.62 8.07-69.14.12-53.66 39.11-101.69 53.5-154 4.7-17.09 6.45-36-4.05-51.25-7.13-10.35-19.16-17.82-31.8-23.59-27.81-12.69-59.42-18.34-90.51-23.84-43.21-7.64-95.68-8.63-129.17-33.35C239.2 17 195.23.07 151.4.07z" opacity=".2"/><ellipse cx="571" cy="487.48" fill="#f5f5f5" rx="465" ry="124.52"/><path fill="#48C6EF" d="M957.18 186.86s-35.83 35.83-15.6 89-34.68 141.59-34.68 141.59.59-.09 1.68-.28c73.59-13 110.16-97.16 69.24-159.69-15.21-23.24-27.7-50.48-20.64-70.62z"/><path fill="none" stroke="#535461" stroke-miterlimit="10" stroke-width="2" d="M957.18 186.86s-20.23 43.92 0 79.75S960.65 403 906.9 417.45"/><path fill="#48C6EF" d="M1021 331.79s-40.89-6.51-44.61 30.13-78.62 41.72-78.62 41.72l1.4.93c61.84 40.59 121 25.86 112-28-3.27-20.08-3-40.21 9.83-44.78z"/><path fill="#f5f5f5" d="M1021 331.79s-40.89-6.51-44.61 30.13-78.62 41.72-78.62 41.72l1.4.93c61.84 40.59 121 25.86 112-28-3.27-20.08-3-40.21 9.83-44.78z" opacity=".2"/><path fill="none" stroke="#535461" stroke-miterlimit="10" stroke-width="2" d="M1021 331.79s-31.74 7-29.13 35.82-47.13 63.45-94.1 36"/><path fill="url(#a)" d="M1008.37 563.92h-64.24a21.42 21.42 0 0 0 2.24-9.57V261.79a21.51 21.51 0 0 0-21.51-21.51H427.52A21.51 21.51 0 0 0 406 261.79v292.57a21.42 21.42 0 0 0 2.24 9.57h-66.51a5.69 5.69 0 0 0-5.69 5.69v4.59A31.82 31.82 0 0 0 367.86 606h614.38a31.82 31.82 0 0 0 31.82-31.82v-4.59a5.69 5.69 0 0 0-5.69-5.67zm-395.89 18.2l-5.48-6.25h136.72l-6.1 6.26z" transform="translate(-82 -144)"/><rect width="528.12" height="327.99" x="330.11" y="100.42" fill="#535461" rx="23.26" ry="23.26"/><path fill="#fff" d="M341.22 148.23h504.77v267.95H341.22z"/><circle cx="593.61" cy="124.88" r="4.45" fill="#fff"/><path fill="#535461" d="M671.55 416.73l-17.35 17.79H531.9l-15.67-17.79H267.29a5.56 5.56 0 0 0-5.56 5.56v4.48a31.1 31.1 0 0 0 31.1 31.1h600.45a31.1 31.1 0 0 0 31.1-31.1v-4.48a5.56 5.56 0 0 0-5.56-5.56z"/><path fill="url(#b)" d="M580.41 301.65H367.48a19.51 19.51 0 0 0-19.53 19.48v295a19.51 19.51 0 0 0 19.53 19.48h212.93a19.51 19.51 0 0 0 19.53-19.48v-295a19.51 19.51 0 0 0-19.53-19.48z" transform="translate(-82 -144)"/><rect width="246" height="327" x="268.94" y="161.65" fill="#535461" rx="20" ry="20"/><path fill="#fff" d="M281.44 192.58h221v265.14h-221z"/><circle cx="390.94" cy="176.65" r="3" fill="#fff"/><circle cx="390.94" cy="472.65" r="9" fill="#fff"/><path fill="url(#c)" d="M418.11 401.65H308.78a10.81 10.81 0 0 0-10.83 10.79v239.42a10.81 10.81 0 0 0 10.83 10.79h109.33a10.81 10.81 0 0 0 10.83-10.79V412.44a10.81 10.81 0 0 0-10.83-10.79z" transform="translate(-82 -144)"/><rect width="129" height="258" x="216.94" y="259.65" fill="#535461" rx="11" ry="11"/><path fill="#fff" d="M226.44 283.65h110v210h-110z"/><circle cx="268.44" cy="271.65" r="1" fill="#fff"/><rect width="22" height="2" x="273.44" y="270.65" fill="#fff" rx="1" ry="1"/><circle cx="280.94" cy="503.65" r="7" fill="#fff"/><path fill="none" stroke="#535461" stroke-miterlimit="10" stroke-width="2" d="M203.73 536.25s-13.26-45 2.49-78.14A71.09 71.09 0 0 0 212 413.5a119.57 119.57 0 0 0-6.31-20.93"/><path fill="#48C6EF" d="M215.45 371.63c0 5.52-10 21.51-10 21.51s-10-16-10-21.51a10 10 0 0 1 20 0zM232 402.19c-3 4.63-20.08 12.63-20.08 12.63s.31-18.86 3.31-23.49A10 10 0 1 1 232 402.19zm-.76 52.21c-4.93 2.48-23.71.77-23.71.77s9.79-16.12 14.71-18.6a10 10 0 0 1 9 17.84zm-9.44 39.39c-4.44 3.28-23.24 4.76-23.24 4.76s6.92-17.54 11.36-20.82a10 10 0 0 1 11.88 16.06zm-30.89-77.9c4 3.84 22.39 7.83 22.39 7.83s-4.51-18.31-8.47-22.15a10 10 0 1 0-13.92 14.33zm-10.46 46.2c4.93 2.48 23.71.77 23.71.77s-9.79-16.12-14.71-18.6a10 10 0 1 0-9 17.84zm-4 46.3c4.44 3.28 23.24 4.76 23.24 4.76s-6.92-17.54-11.36-20.82a10 10 0 0 0-11.88 16.06z"/><path fill="url(#d)" d="M1077 537.1c-11.07-13.43-24.48-28.86-22.6-46.73 1.52-14.47-2.12-27.85-1.4-42.37 1-20.63-3.14-36.78-18-50-8.68-7.73-23.19-13.8-27.51-12.25-8.56 3.06-17.9 1.89-26.71 4-6.69 1.56-11.14 4-13.9 7-5.55 5-5.64 12-3.11 19.45A32.85 32.85 0 0 0 980 462.28c-6.17 2.58-11.5 8.52-13.58 20.58a140.68 140.68 0 0 1-6.53 24.31 39.51 39.51 0 0 1-4 1.61c.3.12.61.2.91.31-.65.25-1.29.5-2 .72a21.21 21.21 0 0 0 3.65 1.06c-8 20.21-18 32.73-18 32.73s-18.65 4.12-25.9-3.09c0 0 1.18 1.38 2.78 3.45-7.09-2.94-18.73-7.74-28.68-11.69-7.22-2.87-9.07 0-9 4a13.32 13.32 0 0 0-5 1.68 48.67 48.67 0 0 0-6.69-3.6c-4.14-1-17.61-8.24-31.08 16.47-7.84 14.37-27.94 40.6-43.39 60-30.05 13.82-69.17 31.32-83.71 35.72h-9.32c-1.22-2-2.07-3.26-2.07-3.26l-.72.48-.31-.48s-18.3 12.67-36.88 12.77a35 35 0 0 1-7.84-1c-8.54-2.15-14.56-3.11-18.86-3-5.09-.09-8 1.12-9.76 3.4a8.94 8.94 0 0 0-.65.94 11.05 11.05 0 0 0-.54 1c-.16.36-.32.74-.46 1.13a2.32 2.32 0 0 0 .58 1.95 10.42 10.42 0 0 0 .81 1l.52.56c2.34 2.42 6.6 5.63 11.9 9.21 1.53 1 3.15 2.1 4.84 3.19l3.21 2 2.87 1.79 1.15.71 1.28.78 2.29 1.39 1.36.82 2.57 1.53 2.08 1.23c5.44 3.21 10.86 6.32 15.75 9.08l3.42 2.04.33.18 2.2 1.23 3.8 2.11 2.61 1.44 1.22.67 1.31.72.26.14 2.28 1.24a3.3 3.3 0 0 0 2.66-.72c.66-2.8 2.27-8.8 4-9.26S706.89 680 709 671.24h20.22a89.13 89.13 0 0 0 11.84-1.82c-5.22 3.72-10.39 6.06-14.41 5.06-8.5-2.11-16.55 3.07-17.36 8.18 0 .11-.07.21-.1.32s-.05.21-.07.31-.06.25-.08.38 0 .21 0 .32v1.38c0 .1.06.27.1.41s0 .18.07.26a5 5 0 0 0 .22.53l.05.13a5.38 5.38 0 0 0 .38.63l.16.21c.1.14.21.28.33.41l.23.23c.12.12.25.24.38.36l.28.23.45.33.33.22.54.32.36.19.68.32.34.15c.36.15.74.29 1.15.42.65.21 1.42.43 2.29.65l.87.21 1.27.29.67.15q1.3.28 2.76.56l1.35.25 1.1.2 2.53.44c1.58.27 3.23.54 5 .8l4.36.66 5.68.81 1.26.17 2 .28 2.93.39 2 .26 5.19.66 1.62.2 3.27.4c4.3.52 8.46 1 12.29 1.43l4.43.5 2.24.25 1 .1 2.68.29 1.49.16 1.84.19 2.59.27h.28l1.66.17a1.51 1.51 0 0 0 1.67-1.47v-.17a1.46 1.46 0 0 0 .24-.78 34 34 0 0 1 .93-7.32c.11-.41.24-.83.38-1.25l.16-.48c.18-.51.36-1 .57-1.55a11.12 11.12 0 0 0 .39-1.14c0-.12.07-.24.11-.37s.1-.41.14-.62c2.08-7.11-.43-20.37-1.15-25.58a27.77 27.77 0 0 0-1.14-4.9 2 2 0 0 0 .39 0 11.79 11.79 0 0 0 3-1.63c15.28-5.45 28.16-11.68 32.23-17.92a27.91 27.91 0 0 1 19.68 2.06c7.91 3.93 67.75 23.46 95.61 32.48 5 4.31 8.92 6.83 11.09 6.64 0 0 35.47 5.74 49.73-5.46 1.27.88 2.07 1.35 2.07 1.35s20.72-10.29 23.83-23.68c1-4.34 1.91-10.74 2.84-17.82a25.91 25.91 0 0 0 7.52-18.21c.65-22.48 9.36-48.16 15.82-71 7.84.62 10.87-.86 18.06-4.41l-.32-.41c.51-.3.96-.5 1.41-.72zm-118.79 33.67l-4-1.33a33 33 0 0 0 3.45-5.74zm-22.29 9.46l24 14.4.21 2.93a21 21 0 0 0 .2 6.7c-10.58-9.4-22.96-20.81-24.42-24.04zm-9.8-21c-2.62-1.08-4.79-2.06-6.28-2.87 2 .14 3.9.26 5.56.35a12.44 12.44 0 0 1 .72 2.52zm-64.28 23.47s4.14-9.26 13.47 6.18c1.45 2.4 4.12 6.22 7.65 10.95l-27.16-3.63c3.2-4.96 5.35-9.57 6.04-13.49z" transform="translate(-82 -144)"/><path fill="#f7c4a7" d="M839.5 401.5s-19-8-34-14-6 14-6 14 25 7 25 8 21 2 21 2z"/><path d="M839.5 401.5s-19-8-34-14-6 14-6 14 25 7 25 8 21 2 21 2z" opacity=".05"/><path fill="#575988" d="M920.5 322.5s-34-18-40 17-25 59-25 59-18 4-25-3c0 0 17 20 9 22 0 0 18 13 26 9s14-31 17-38 14-68 38-66z"/><path d="M920.5 322.5s-34-18-40 17-25 59-25 59-18 4-25-3c0 0 17 20 9 22 0 0 18 13 26 9s14-31 17-38 14-68 38-66z" opacity=".1"/><path fill="#f7c4a7" d="M901.5 310.5s21 24 22 44 24-21 26-22-20-35-22-46-26 24-26 24z"/><path fill="#f7c4a7" d="M916 320.75l-13.25 12L909 358l17-16-2-16-8-5.25zM639.5 498.5h-23l9 22 22-6-8-16z"/><path d="M621.82 495.33s-23.82 16.59-44.17 11.43-25.88-3.23-28.25 3.43c-2.19 6.13 56.84 38.55 66.25 43.67a1.08 1.08 0 0 0 1.57-.7c.64-2.72 2.19-8.55 3.85-9 2.16-.58 12-19 11.46-26.24s-10.71-22.59-10.71-22.59z" opacity=".1"/><path fill="#f3b5b7" d="M620.82 495.33s-23.82 16.59-44.17 11.43-25.88-3.23-28.25 3.43c-2.19 6.13 56.84 38.55 66.25 43.67a1.08 1.08 0 0 0 1.57-.7c.64-2.72 2.19-8.55 3.85-9 2.16-.58 12-19 11.46-26.24s-10.71-22.59-10.71-22.59z"/><path fill="#575988" d="M817.5 455.5l-67-9s-109 52-122 53l3 23h20c8 0 86-17 97-34a26.78 26.78 0 0 1 19 2c10 5 106 36 106 36z"/><path d="M817.5 455.5l-67-9s-109 52-122 53l3 23h20c8 0 86-17 97-34a26.78 26.78 0 0 1 19 2c10 5 106 36 106 36z" opacity=".1"/><path fill="#f7c4a7" d="M698.5 486.5l-11 14 11 6 16-12-16-8z"/><path fill="#575988" d="M889.5 470.5s-36-30.82-38.49-36.41-61.51-43.59-65.51-44.59-17-8-30 16-61 82-61 82 15 21 20 20 61-48 65-71c0 0 4-9 13 6s67 87 78 86c0 0 43 7 52-10s-33-48-33-48z"/><path fill="#dddbe2" d="M910 324s-12.5 5.5-13.5 28.5-23 62-23 62l2 46s24 24 26 39 19 25 19 25 20-10 23-23 5-45 10-57 2-87 2-87l-15-26-8-9-21 24S900 331 910 324z"/><path d="M880.5 445.5s-3-36 6-44l18-51S911 326 910 324s-23.5 19.5-23.5 19.5l-15 53 4 56z" opacity=".1"/><path fill="#575988" d="M879.5 445.5s-3-36 6-44l18-51s7-25 6-27-24 20-24 20l-15 53 4 56z"/><path fill="#f7c4a7" d="M886.5 429.5s-50-16-53-20-35-30-46-12 41 23 41 23l53 32z"/><path d="M700.67 500.41l-14.8-2.66s-24.24 31.05-36.87 27.9-24.25 10.44-10.91 14.8c12.05 3.94 64.09 9.45 74 10.47a1.46 1.46 0 0 0 1.61-1.42 31.84 31.84 0 0 1 2.3-11.27c2.67-6.55 0-20.62-.74-26a25.83 25.83 0 0 0-2.91-9z" opacity=".1"/><path fill="#f3b5b7" d="M700.42 501.38l-14.8-2.66s-24.24 31.05-36.85 27.91-24.25 10.44-10.91 14.8c12.05 3.94 64.09 9.45 74 10.47a1.46 1.46 0 0 0 1.61-1.42 31.84 31.84 0 0 1 2.21-11.26c2.67-6.55 0-20.62-.74-26a25.83 25.83 0 0 0-2.91-9z"/><circle cx="909" cy="290" r="32" opacity=".1"/><circle cx="906" cy="290" r="32" fill="#f7c4a7"/><path fill="#575988" d="M937.5 321.5s38 13 38 40-21 70-22 105-56 30-56 30-8-118 0-127 44-44 40-48z"/><path d="M930.5 377.5s-14 62-47 51c0 0-17 25-5 36 0 0 29 7 48-12s33-26 36-49 5-55-5-52-27 26-27 26z" opacity=".1"/><path fill="#575988" d="M931.5 376.5s-14 62-47 51c0 0-17 25-5 36 0 0 29 7 48-12s33-26 36-49 5-55-5-52-27 26-27 26z"/><path fill="#dddbe2" d="M716.54 536c0 .09-.06.2-.09.28a29.28 29.28 0 0 0-1.57 5.29c.24-.78.52-1.58.84-2.38a14.52 14.52 0 0 0 .82-3.19zm-77.95 2.51c-4.12-1.35-5.85-3.57-5.92-5.91-1.7 3.26-.63 6.92 5.19 8.82 12.05 3.94 64.1 9.45 74 10.47a1.46 1.46 0 0 0 1.61-1.43 1.47 1.47 0 0 0-1.31-1.49c-10.86-1.16-61.68-6.58-73.57-10.46zm-88.81-30.08a12.32 12.32 0 0 1 1-2.12 9.75 9.75 0 0 0-2.35 3.88c-2.19 6.13 56.84 38.55 66.25 43.67a1.08 1.08 0 0 0 1.57-.71 1.08 1.08 0 0 0-.53-1.2c-10.4-5.69-68.1-37.46-65.94-43.52zm71.66 33.98c-.53.14-1.05.85-1.54 1.82l.16-.06c.44-.12 1.19-1 2.1-2.3a1.94 1.94 0 0 1-.72.54z"/><path d="M901.56 318.17c-2.82 6.22-3.41 13.23-5.48 19.75-4.11 12.93-14.42 23.63-26.77 27.76 10.39 4.14 22.65-.92 30.68-9.32s12.74-19.58 17.25-30.46c11.66 7.84 10.24 25.86 14.16 39.89a44.24 44.24 0 0 0 23.55 28.15 42.17 42.17 0 0 0 36.07-.73c-10.69-13-25.91-30.93-24.1-48.29 1.47-14.06-8.62-24.8-7.93-38.91 1-20-6.66-30.16-21-43-8.38-7.51 4.81-18.1-6-15-4.25 1.22-8.73-3.33-12.9-1.83-8.26 3-17.28 1.84-25.78 3.84-44.18 10.38 12.37 59.07 8.25 68.15z" opacity=".1"/><path fill="#fc6681" d="M902.56 317.17c-2.82 6.22-3.41 13.23-5.48 19.75-4.11 12.93-14.42 23.63-26.77 27.76 10.39 4.14 22.65-.92 30.68-9.32s12.74-19.58 17.25-30.46c11.66 7.84 10.24 25.86 14.16 39.89a44.24 44.24 0 0 0 23.55 28.15 42.17 42.17 0 0 0 36.07-.73c-10.69-13-24.91-27.93-23.1-45.29 1.47-14.06-.72-28.51 0-42.61 1-20-8.81-39.32-23.16-52.16-8.38-7.51-21.47-8.47-25.65-7-8.26 3-17.28 1.84-25.78 3.84-44.2 10.41 12.35 59.1 8.23 68.18z"/></symbol><symbol id="undraw-fast-loading" viewBox="0 0 942 745.6"><defs><linearGradient id="a" x1="219.48" x2="219.48" y1="505.38" gradientUnits="userSpaceOnUse"><stop offset="0" stop-color="gray" stop-opacity=".25"/><stop offset=".54" stop-color="gray" stop-opacity=".12"/><stop offset="1" stop-color="gray" stop-opacity=".1"/></linearGradient><linearGradient id="b" x1="425.02" x2="425.02" y1="459.78" y2="162.72" xlink:href="#a"/><linearGradient id="c" x1="600" x2="600" y1="824.36" y2="334.87" xlink:href="#a"/><linearGradient id="d" x1="617.59" x2="617.59" y1="479.82" y2="137.05" xlink:href="#a"/></defs><rect width="334.33" height="505.38" x="52.32" fill="url(#a)" opacity=".5" rx="4.5" ry="4.5"/><rect width="325.76" height="495.16" x="56.6" y="3.71" fill="#f2f2f2" rx="4.5" ry="4.5"/><rect width="65.15" height="58.64" x="89.18" y="94.93" fill="#48C6EF" opacity=".5" rx="4.5" ry="4.5"/><rect width="175.91" height="6.52" x="173.88" y="94.93" fill="#e0e0e0" rx="2.82" ry="2.82"/><rect width="146.23" height="6.52" x="173.88" y="114.47" fill="#e0e0e0" rx="2.82" ry="2.82"/><rect width="65.15" height="58.64" x="89.18" y="186.14" fill="#48C6EF" opacity=".5" rx="4.5" ry="4.5"/><rect width="175.91" height="6.52" x="173.88" y="186.14" fill="#e0e0e0" rx="2.82" ry="2.82"/><rect width="175.91" height="6.52" x="173.88" y="205.68" fill="#e0e0e0" rx="2.82" ry="2.82"/><rect width="65.15" height="58.64" x="89.18" y="277.35" fill="#48C6EF" opacity=".5" rx="4.5" ry="4.5"/><rect width="175.91" height="6.52" x="173.88" y="277.35" fill="#e0e0e0" rx="2.82" ry="2.82"/><rect width="19.55" height="6.52" x="173.88" y="296.9" fill="#e0e0e0" rx="2.82" ry="2.82"/><rect width="329.32" height="297.06" x="260.36" y="162.72" fill="url(#b)" opacity=".5" rx="4.5" ry="4.5"/><rect width="319.7" height="287.73" x="265.45" y="165.7" fill="#fff" rx="4.5" ry="4.5"/><rect width="68.69" height="61.82" x="296.84" y="227.52" fill="#48C6EF" opacity=".5" rx="4.5" ry="4.5"/><rect width="185.46" height="6.87" x="386.14" y="227.52" fill="#e0e0e0" rx="2.98" ry="2.98"/><rect width="185.46" height="6.87" x="386.14" y="248.13" fill="#e0e0e0" rx="2.98" ry="2.98"/><rect width="281.63" height="6.87" x="289.97" y="322.92" fill="#e0e0e0" rx="2.98" ry="2.98"/><rect width="281.63" height="6.87" x="289.97" y="343.53" fill="#e0e0e0" rx="2.98" ry="2.98"/><rect width="281.63" height="6.87" x="289.97" y="371" fill="#e0e0e0" rx="2.98" ry="2.98"/><rect width="212.94" height="6.87" x="289.97" y="391.61" fill="#e0e0e0" rx="2.98" ry="2.98"/><path fill="url(#c)" d="M726.64 352.64l1.17-5.22-1.64 5.1a510.06 510.06 0 0 0-130.8-17.64C277.05 333 129 614.33 129 614.33l301.66 159.16s37-114.74 168.41-111a226.18 226.18 0 0 1 27 2.36l-39.98 124.53a22.2 22.2 0 1 0 37.07 24.4v-.06a22.07 22.07 0 0 0 3.27-11.2c0-.67 0-1.34-.07-2l28.9-129.14c86.1 26.48 112.19 102.1 112.19 102.1L1071 621.73S957 415.2 726.64 352.64z" opacity=".5" transform="translate(-129 -78.76)"/><path fill="#48C6EF" d="M466.43 259.24C152.17 257.41 6 535.13 6 535.13l297.82 157.11s36.54-113.28 166.27-109.63a223.22 223.22 0 0 1 27.29 2.42L596 276.78a503.55 503.55 0 0 0-129.57-17.54z"/><path fill="#e0e0e0" d="M596 276.78l-98.62 308.28C605 601.41 636.35 692.24 636.35 692.24L936 542.44s-112.59-203.9-340-265.66z"/><path fill="#535461" d="M497.06 718.95l100.12-447.33-139.92 436.33a21.92 21.92 0 1 0 36.59 24.09v-.06a21.79 21.79 0 0 0 3.23-11.05c.06-.69.03-1.33-.02-1.98z"/><path fill="url(#d)" d="M662.25 337.47l-2.62-.49 5.17-19c8.14-61-22.61-67.19-34.14-67.4a37.91 37.91 0 0 0-4.05-1.23v-7.2a38.22 38.22 0 0 0 28.55-30.86h.1c1.83 0 3.32-2.79 3.32-6.23a8.64 8.64 0 0 0-1.45-5.14q.2-2 .2-4A39.72 39.72 0 0 0 645 167.13a25.6 25.6 0 0 0-2.82-7.58c-2.83-5-7.54-10.18-5.62-15.59l-12.43 1.28-.12-8.19c-3.88.7-5.51 5.19-7.81 8.39-5.54 7.7-16.65 8.77-24 14.77-2.5 2-8.12 8.24-7.05 12.31a39.66 39.66 0 0 0-7.58 23.37q0 2 .2 4a8.64 8.64 0 0 0-1.45 5.14c0 3.44 1.49 6.23 3.32 6.23h.1a38.22 38.22 0 0 0 28.55 30.86v7.2a37.91 37.91 0 0 0-4.05 1.23c-11.53.21-42.28 6.36-34.14 67.4l5.17 19-1.23.23a14.17 14.17 0 0 0-11.33 16.53l20.43 109.19a4.29 4.29 0 0 0 5 3.43l3.59-.67v2.12a11.92 11.92 0 0 0-6.64 10.68v1.35h24.08v-1.35a11.92 11.92 0 0 0-5.81-10.23v-4.75l3.28-.61a4.29 4.29 0 0 0 3.43-5l-19.14-102.58H644l-19.12 102.59a4.29 4.29 0 0 0 3.43 5l3.28.61v4.75a11.92 11.92 0 0 0-5.81 10.23v1.35h24.08v-1.35a11.92 11.92 0 0 0-6.64-10.68v-2.12l3.59.67a4.29 4.29 0 0 0 5-3.43l20.64-110.56a12.75 12.75 0 0 0-10.2-14.88z" opacity=".7" transform="translate(-129 -78.76)"/><path fill="#fdb797" d="M463.72 373h11.18v15.18h-11.18zm38.34 0h11.18v15.18h-11.18z"/><path fill="#4d8af0" d="M451.74 248.4h73.49v26.36h-73.49z"/><path d="M451.74 248.4h73.49v26.36h-73.49z" opacity=".05"/><path d="M451.74 253.19s27.42 6.39 36.74 6.39 36.74-6.39 36.74-6.39v-4h-73.48z" opacity=".1"/><path fill="#f55f44" d="M525.22 252.39s-27.42 6.39-36.74 6.39-36.74-6.39-36.74-6.39v-43.93a36.74 36.74 0 0 1 36.74-36.74 36.74 36.74 0 0 1 36.74 36.74z"/><path fill="#fdb797" d="M479.7 153.34h17.57v21.14a7.61 7.61 0 0 1-7.61 7.61h-2.34a7.61 7.61 0 0 1-7.61-7.61v-21.14h-.01z"/><path fill="#4d8af0" d="M477 378.46l-15.75 2.94a5.17 5.17 0 0 1-6-4.13l-18.78-100.64a17.06 17.06 0 0 1 13.64-19.91l4.06-.76a5.17 5.17 0 0 1 6 4.13l21 112.33a5.17 5.17 0 0 1-4.17 6.04zm22.92 0l15.75 2.94a5.17 5.17 0 0 0 6-4.13l19.1-102.32a15.36 15.36 0 0 0-12.28-17.91l-5.74-1.07a5.17 5.17 0 0 0-6 4.13l-21 112.33a5.17 5.17 0 0 0 4.17 6.03z"/><path d="M479.7 166.66a36.77 36.77 0 0 0 17.57 0v-12.52H479.7z" opacity=".1"/><circle cx="488.48" cy="121.39" r="38.34" fill="#333"/><circle cx="488.48" cy="130.18" r="36.74" fill="#fdb797"/><path fill="#333" d="M464.22 87.06c7.07-5.77 17.76-6.8 23.08-14.21 2.21-3.08 3.78-7.41 7.51-8.08l.11 7.88 12-1.23c-1.85 5.2 2.68 10.2 5.41 15a24.66 24.66 0 0 1 3.19 11.61c-4.15 2.49-9.3-.23-13.92-1.68s-9.27-1.56-14-1.69a29.05 29.05 0 0 0-7.22.4 36.41 36.41 0 0 0-6 2.19c-3.18 1.33-13.23 6.36-16.18 3.12-3.32-3.67 3.29-11.08 6.02-13.31z"/><path d="M466.22 111.75a16.85 16.85 0 0 0 6.5 2 57.24 57.24 0 0 0 27.89-3.13c1.46 3.69 5 6.23 8.79 7.43s7.81 1.26 11.78 1.32a4.36 4.36 0 0 0 2.53-.48c1.77-1.19.91-3.93-.12-5.79l-5.12-9.28c-1.51-2.74-3.07-5.54-5.41-7.61-2.94-2.6-6.84-3.82-10.68-4.59a60.24 60.24 0 0 0-27.42.91c-9.57 2.53-21.86 11.28-8.74 19.22z" opacity=".1"/><path fill="#333" d="M466.22 110.95a16.85 16.85 0 0 0 6.5 2 57.24 57.24 0 0 0 27.89-3.13c1.46 3.69 5 6.23 8.79 7.43s7.81 1.26 11.78 1.32a4.36 4.36 0 0 0 2.53-.48c1.77-1.19.91-3.93-.12-5.79l-5.12-9.28c-1.51-2.74-3.07-5.54-5.41-7.61-2.94-2.6-6.84-3.82-10.68-4.59a60.24 60.24 0 0 0-27.42.91c-9.57 2.51-21.86 11.29-8.74 19.22z"/><ellipse cx="524.83" cy="130.18" fill="#fdb797" rx="3.2" ry="5.99"/><ellipse cx="452.14" cy="130.18" fill="#fdb797" rx="3.2" ry="5.99"/><path fill="#f55f44" d="M479.84 174.16s-46.48-7.24-36.89 64.65l5.59 20.61 16-.64s-10.38-24-4-39.94 19.3-44.68 19.3-44.68zm17.28 0s46.48-7.24 36.89 64.65l-5.59 20.61-16-.64s10.38-24 4-39.94-19.3-44.68-19.3-44.68z"/><circle cx="457.33" cy="261.97" r="8.79" fill="#fdb797"/><circle cx="521.23" cy="261.97" r="8.79" fill="#fdb797"/><path fill="#333" d="M467.37 381.79h3.09a10 10 0 0 1 10 10v2.74h-23.13v-2.74a10 10 0 0 1 10.04-10zm39.14 0h3.09a10 10 0 0 1 10 10v2.74h-23.13v-2.74a10 10 0 0 1 10.04-10z"/><path d="M459.73 212.45s-3.2 16.77 2.4 24m55.11-24s3.2 16.77-2.4 24" opacity=".1"/></symbol><symbol id="undraw-personal-text" viewBox="0 0 941 780"><circle cx="568" cy="373" r="373" fill="#f2f2f2"/><path fill="#6F86D6" d="M1041.5 792c0 15.464-204.158 48-456 48s-456-32.536-456-48 204.158-8 456-8 456-7.464 456 8z" transform="translate(-129.5 -60)"/><path d="M1041.5 792c0 15.464-204.158 48-456 48s-456-32.536-456-48 204.158-8 456-8 456-7.464 456 8z" opacity=".1" transform="translate(-129.5 -60)"/><ellipse cx="456" cy="732" fill="#6F86D6" rx="456" ry="28"/><path fill="#6F86D6" d="M851.689 659.413c0 63.204 39.65 114.348 88.651 114.348" transform="translate(-129.5 -60)"/><path fill="#fff" d="M940.34 773.76c0-63.914 44.249-115.632 98.93-115.632m-155.461 7.014c0 60.037 25.284 108.619 56.531 108.619" transform="translate(-129.5 -60)"/><path fill="#6F86D6" d="M940.34 773.76c0-81.668 51.144-147.752 114.349-147.752" transform="translate(-129.5 -60)"/><path fill="#a8a8a8" d="M921.69 774.567s12.573-.387 16.362-3.085 19.339-5.92 20.279-1.593 18.894 21.521 4.7 21.636-32.981-2.211-36.763-4.515-4.578-12.443-4.578-12.443z" transform="translate(-129.5 -60)"/><path d="M963.284 790.018c-14.194.115-32.98-2.21-36.762-4.514-2.88-1.754-4.028-8.05-4.412-10.953l-.42.016s.797 10.14 4.578 12.443 22.569 4.63 36.763 4.515c4.097-.033 5.512-1.491 5.435-3.65-.57 1.304-2.132 2.119-5.182 2.143z" opacity=".2" transform="translate(-129.5 -60)"/><path fill="#ffb9b9" d="M702.135 295.316s12.793 26.864 7.676 39.656 19.188 26.864 19.188 26.864l31.98-17.91V320.9l-5.116-10.234s-20.468-11.513-17.91-29.422-35.818 14.072-35.818 14.072z" transform="translate(-129.5 -60)"/><path d="M702.135 295.316s12.793 26.864 7.676 39.656 19.188 26.864 19.188 26.864l31.98-17.91V320.9l-5.116-10.234s-20.468-11.513-17.91-29.422-35.818 14.072-35.818 14.072z" opacity=".1" transform="translate(-129.5 -60)"/><path fill="#ffb9b9" d="M677.83 407.888s-2.559 28.143-2.559 31.98-3.837 16.63-3.837 16.63-14.072 65.242-23.027 71.638-14.071 46.052 0 43.494 17.91-37.098 17.91-37.098l29.125-54.997 4.135-66.53z" transform="translate(-129.5 -60)"/><path fill="#575a89" d="M688.064 351.602H677.83s-10.234 61.403 0 63.962 29.422 2.558 29.422 2.558z" transform="translate(-129.5 -60)"/><path fill="#ffb9b9" d="M616.13 686.88l5.12 24.31 10.23-7.68-5.12-21.74-10.23 3.84v1.27z"/><path fill="#2f2e41" d="M699.577 487.2l-7.676 5.117s-3.837 44.774 5.117 79.313 15.351 75.474 15.351 75.474 15.35 102.339 19.188 104.897 28.144 3.838 29.423-1.279-8.955-101.06-8.955-101.06-7.675-80.59-1.279-90.825c0 0 20.468 88.267 26.864 97.222 0 0 8.954 97.222 14.071 99.78s29.423 3.838 30.702-1.28-7.675-115.13-11.513-124.085-5.117-141.994-14.072-140.715-97.221-2.559-97.221-2.559z" transform="translate(-129.5 -60)"/><circle cx="585.43" cy="217.41" r="29.42" fill="#ffb9b9"/><path fill="#575a89" d="M726.44 342.647l-6.396-11.513s-7.675-10.234-11.513-7.675-3.837 11.513-3.837 11.513-29.423 10.234-26.864 24.305 19.188 38.377 19.188 38.377 2.559 20.468 0 25.585-7.675 8.955-3.837 14.071 5.116 6.397 3.837 12.793-3.837 8.954-1.279 11.513-1.28 29.422-3.838 30.701 81.871 14.072 88.267 10.234 24.306-3.837 23.026-7.675-6.396-26.864-6.396-30.702 0-20.467-1.279-21.747 1.28-20.467 1.28-20.467l-6.397-53.728 20.468-31.98s-5.117-17.91-29.422-20.469-31.03-8.954-31.03-8.954-2.23 11.513-7.347 14.071-16.63 21.747-16.63 21.747z" transform="translate(-129.5 -60)"/><path fill="#ffb9b9" d="M819.825 377.187l7.675 57.565-16.63 83.15s-6.396 47.332-19.189 46.052 0-51.169 0-51.169l10.234-78.033s-16.63-39.656-12.792-44.773 30.702-12.792 30.702-12.792z" transform="translate(-129.5 -60)"/><path fill="#2f2e41" d="M757.142 759.677s-16.63-8.955-20.468-7.676S729 771.19 729 771.19s-29.422 21.747-10.234 26.864 26.864-6.396 26.864-6.396 19.189-10.234 19.189-12.793-2.559-19.188-2.559-19.188zm38.378-6.397s-7.676 42.215-2.56 44.774 26.865 6.396 29.423 0 2.558-21.747 1.28-26.864-5.118-17.91-5.118-17.91zm-85.724-522.411a6.826 6.826 0 0 0-3.525-.107c-1.468.48-2.432 1.836-3.552 2.9-2.934 2.785-7.126 3.656-10.95 4.976s-7.847 3.654-8.804 7.585a41.28 41.28 0 0 0-.417 4.773c-.57 4.637-4.107 8.812-3.475 13.441.413 3.024 2.57 5.59 3.012 8.609.493 3.367-1.208 6.871-.259 10.139.93 3.202 4.075 5.154 6.973 6.804q1.864-11.834 4.479-23.534a8.504 8.504 0 0 1 1.595-3.888c2.572-2.914 7.617-1.255 10.955-3.245 1.268-.756 2.209-2.004 3.54-2.641 3.857-1.843 8.028 2.24 12.302 2.278 1.886.017 3.955-.732 5.548.278a5.07 5.07 0 0 1 1.623 1.995c1.523 2.859 2.36 6.07 4.136 8.78s4.957 4.917 8.106 4.159c-.48-2.442 1.432-4.64 2.197-7.008 1.317-4.075-.836-8.498-.317-12.749.487-3.99 3.088-8.676.235-11.51a8.086 8.086 0 0 0-3.375-1.693c-10.096-3.204-19.422-8.574-30.027-10.342z" transform="translate(-129.5 -60)"/><path fill="#575a89" d="M798.078 331.134l12.792 5.117s16.63 53.728 12.792 53.728-38.377 8.954-38.377 5.117 2.559-63.962 12.793-63.962z" transform="translate(-129.5 -60)"/><path fill="#6F86D6" d="M466 162H70v130h15v34l34-34h347V162zm0 350H70v130h15v34l34-34h347V512zM140 338h396v130h-15v34l-34-34H140V338z"/><path fill="#fff" d="M116 183.5h304v12H116zm0 23h152v12H116z" opacity=".3"/><circle cx="133" cy="253.5" r="17" fill="#fff" opacity=".3"/><path fill="#fff" d="M176 357.5h304v12H176zm0 23h152v12H176z"/><circle cx="193" cy="427.5" r="17" fill="#fff"/><path fill="#fff" d="M116 533.5h304v12H116zm0 23h152v12H116z" opacity=".3"/><circle cx="133" cy="603.5" r="17" fill="#fff" opacity=".3"/></symbol></svg>